<mxfile host="app.diagrams.net" modified="2023-12-23T19:40:04.200Z" agent="Mozilla/5.0 (Windows NT 10.0; Win64; x64) AppleWebKit/537.36 (KHTML, like Gecko) Chrome/120.0.0.0 Safari/537.36" etag="ZNhPQ1XhZLFJ-sdcTKOF" version="22.1.11" type="device">
  <diagram name="Sayfa -1" id="PqOgLWuX3itYLiB0qcNl">
    <mxGraphModel dx="1674" dy="746" grid="1" gridSize="10" guides="1" tooltips="1" connect="1" arrows="1" fold="1" page="1" pageScale="1" pageWidth="827" pageHeight="1169" math="0" shadow="0">
      <root>
        <mxCell id="0" />
        <mxCell id="1" parent="0" />
        <mxCell id="MTR5PtHy9D4OAysSzHe5-11" style="edgeStyle=orthogonalEdgeStyle;rounded=0;orthogonalLoop=1;jettySize=auto;html=1;entryX=0.5;entryY=0;entryDx=0;entryDy=0;" edge="1" parent="1" source="MTR5PtHy9D4OAysSzHe5-1" target="MTR5PtHy9D4OAysSzHe5-3">
          <mxGeometry relative="1" as="geometry" />
        </mxCell>
        <mxCell id="MTR5PtHy9D4OAysSzHe5-1" value="Giriş" style="ellipse;whiteSpace=wrap;html=1;" vertex="1" parent="1">
          <mxGeometry x="170" y="50" width="100" height="70" as="geometry" />
        </mxCell>
        <mxCell id="MTR5PtHy9D4OAysSzHe5-12" style="edgeStyle=orthogonalEdgeStyle;rounded=0;orthogonalLoop=1;jettySize=auto;html=1;entryX=0.5;entryY=0;entryDx=0;entryDy=0;" edge="1" parent="1" source="MTR5PtHy9D4OAysSzHe5-3" target="MTR5PtHy9D4OAysSzHe5-4">
          <mxGeometry relative="1" as="geometry" />
        </mxCell>
        <mxCell id="MTR5PtHy9D4OAysSzHe5-3" value="elemanSayisi = 0&lt;br&gt;toplam = 0" style="rounded=0;whiteSpace=wrap;html=1;" vertex="1" parent="1">
          <mxGeometry x="165" y="220" width="120" height="60" as="geometry" />
        </mxCell>
        <mxCell id="MTR5PtHy9D4OAysSzHe5-13" style="edgeStyle=orthogonalEdgeStyle;rounded=0;orthogonalLoop=1;jettySize=auto;html=1;exitX=1;exitY=0.5;exitDx=0;exitDy=0;entryX=0.5;entryY=0;entryDx=0;entryDy=0;" edge="1" parent="1" source="MTR5PtHy9D4OAysSzHe5-4" target="MTR5PtHy9D4OAysSzHe5-9">
          <mxGeometry relative="1" as="geometry" />
        </mxCell>
        <mxCell id="MTR5PtHy9D4OAysSzHe5-22" value="HAYIR" style="edgeLabel;html=1;align=center;verticalAlign=middle;resizable=0;points=[];" vertex="1" connectable="0" parent="MTR5PtHy9D4OAysSzHe5-13">
          <mxGeometry x="-0.912" y="-1" relative="1" as="geometry">
            <mxPoint as="offset" />
          </mxGeometry>
        </mxCell>
        <mxCell id="MTR5PtHy9D4OAysSzHe5-20" style="edgeStyle=orthogonalEdgeStyle;rounded=0;orthogonalLoop=1;jettySize=auto;html=1;entryX=0.5;entryY=0;entryDx=0;entryDy=0;" edge="1" parent="1" source="MTR5PtHy9D4OAysSzHe5-4" target="MTR5PtHy9D4OAysSzHe5-6">
          <mxGeometry relative="1" as="geometry" />
        </mxCell>
        <mxCell id="MTR5PtHy9D4OAysSzHe5-21" value="EVET" style="edgeLabel;html=1;align=center;verticalAlign=middle;resizable=0;points=[];" vertex="1" connectable="0" parent="MTR5PtHy9D4OAysSzHe5-20">
          <mxGeometry x="0.24" y="2" relative="1" as="geometry">
            <mxPoint as="offset" />
          </mxGeometry>
        </mxCell>
        <mxCell id="MTR5PtHy9D4OAysSzHe5-4" value="sayi !== 0" style="rhombus;whiteSpace=wrap;html=1;" vertex="1" parent="1">
          <mxGeometry x="155" y="330" width="130" height="80" as="geometry" />
        </mxCell>
        <mxCell id="MTR5PtHy9D4OAysSzHe5-17" style="edgeStyle=orthogonalEdgeStyle;rounded=0;orthogonalLoop=1;jettySize=auto;html=1;entryX=0.5;entryY=0;entryDx=0;entryDy=0;" edge="1" parent="1" source="MTR5PtHy9D4OAysSzHe5-6" target="MTR5PtHy9D4OAysSzHe5-7">
          <mxGeometry relative="1" as="geometry" />
        </mxCell>
        <mxCell id="MTR5PtHy9D4OAysSzHe5-6" value="sayi" style="shape=parallelogram;perimeter=parallelogramPerimeter;whiteSpace=wrap;html=1;fixedSize=1;" vertex="1" parent="1">
          <mxGeometry x="160" y="440" width="120" height="60" as="geometry" />
        </mxCell>
        <mxCell id="MTR5PtHy9D4OAysSzHe5-14" style="edgeStyle=orthogonalEdgeStyle;rounded=0;orthogonalLoop=1;jettySize=auto;html=1;entryX=0.5;entryY=0;entryDx=0;entryDy=0;" edge="1" parent="1" source="MTR5PtHy9D4OAysSzHe5-7" target="MTR5PtHy9D4OAysSzHe5-9">
          <mxGeometry relative="1" as="geometry" />
        </mxCell>
        <mxCell id="MTR5PtHy9D4OAysSzHe5-19" value="EVET" style="edgeLabel;html=1;align=center;verticalAlign=middle;resizable=0;points=[];" vertex="1" connectable="0" parent="MTR5PtHy9D4OAysSzHe5-14">
          <mxGeometry x="-0.8442" y="1" relative="1" as="geometry">
            <mxPoint as="offset" />
          </mxGeometry>
        </mxCell>
        <mxCell id="MTR5PtHy9D4OAysSzHe5-7" value="sayi === 0" style="rhombus;whiteSpace=wrap;html=1;" vertex="1" parent="1">
          <mxGeometry x="140" y="570" width="130" height="80" as="geometry" />
        </mxCell>
        <mxCell id="MTR5PtHy9D4OAysSzHe5-8" value="toplam += sayi&lt;br&gt;elemanSayisi++" style="rounded=0;whiteSpace=wrap;html=1;" vertex="1" parent="1">
          <mxGeometry x="155" y="700" width="120" height="60" as="geometry" />
        </mxCell>
        <mxCell id="MTR5PtHy9D4OAysSzHe5-23" style="edgeStyle=orthogonalEdgeStyle;rounded=0;orthogonalLoop=1;jettySize=auto;html=1;entryX=0.5;entryY=0;entryDx=0;entryDy=0;" edge="1" parent="1" source="MTR5PtHy9D4OAysSzHe5-9" target="MTR5PtHy9D4OAysSzHe5-10">
          <mxGeometry relative="1" as="geometry" />
        </mxCell>
        <mxCell id="MTR5PtHy9D4OAysSzHe5-9" value="toplam / elemanSayisi" style="shape=document;whiteSpace=wrap;html=1;boundedLbl=1;" vertex="1" parent="1">
          <mxGeometry x="550" y="530" width="150" height="80" as="geometry" />
        </mxCell>
        <mxCell id="MTR5PtHy9D4OAysSzHe5-10" value="Bitiş" style="ellipse;whiteSpace=wrap;html=1;" vertex="1" parent="1">
          <mxGeometry x="580" y="650" width="90" height="70" as="geometry" />
        </mxCell>
        <mxCell id="MTR5PtHy9D4OAysSzHe5-15" style="edgeStyle=orthogonalEdgeStyle;rounded=0;orthogonalLoop=1;jettySize=auto;html=1;entryX=0.417;entryY=0;entryDx=0;entryDy=0;entryPerimeter=0;" edge="1" parent="1" source="MTR5PtHy9D4OAysSzHe5-7" target="MTR5PtHy9D4OAysSzHe5-8">
          <mxGeometry relative="1" as="geometry" />
        </mxCell>
        <mxCell id="MTR5PtHy9D4OAysSzHe5-18" value="HAYIR" style="edgeLabel;html=1;align=center;verticalAlign=middle;resizable=0;points=[];" vertex="1" connectable="0" parent="MTR5PtHy9D4OAysSzHe5-15">
          <mxGeometry x="-0.2794" y="-3" relative="1" as="geometry">
            <mxPoint as="offset" />
          </mxGeometry>
        </mxCell>
        <mxCell id="MTR5PtHy9D4OAysSzHe5-16" value="" style="endArrow=classic;html=1;rounded=0;exitX=0.4;exitY=1.033;exitDx=0;exitDy=0;exitPerimeter=0;" edge="1" parent="1" source="MTR5PtHy9D4OAysSzHe5-8">
          <mxGeometry width="50" height="50" relative="1" as="geometry">
            <mxPoint x="100" y="820" as="sourcePoint" />
            <mxPoint x="203" y="540" as="targetPoint" />
            <Array as="points">
              <mxPoint x="30" y="810" />
              <mxPoint x="40" y="590" />
            </Array>
          </mxGeometry>
        </mxCell>
        <mxCell id="MTR5PtHy9D4OAysSzHe5-25" value="sayi = -1" style="rounded=0;whiteSpace=wrap;html=1;" vertex="1" parent="1">
          <mxGeometry x="165" y="140" width="120" height="60" as="geometry" />
        </mxCell>
      </root>
    </mxGraphModel>
  </diagram>
</mxfile>
